<svg height='100px' width='100px'  fill="#000000" xmlns="http://www.w3.org/2000/svg" xmlns:xlink="http://www.w3.org/1999/xlink" version="1.1" x="0px" y="0px" viewBox="0 0 32 32" style="enable-background:new 0 0 32 32;" xml:space="preserve"><g><path d="M2.5,32c-0.667,0-1.294-0.261-1.767-0.733C0.26,30.793,0,30.165,0,29.498L0.003,4.501C0.003,3.122,1.125,2,2.504,2h13.898   c0.552,0,1,0.448,1,1s-0.448,1-1,1H2.504C2.232,4,2.003,4.229,2.003,4.501L2,29.499c0,0.179,0.092,0.298,0.147,0.354   C2.203,29.907,2.322,30,2.5,30l24.999-0.003c0.271,0,0.501-0.229,0.501-0.501V15.598c0-0.552,0.447-1,1-1s1,0.448,1,1v13.898   c0,1.379-1.122,2.501-2.501,2.501L2.5,32z"></path><path d="M7,26c-0.263,0-0.518-0.104-0.707-0.293c-0.236-0.236-0.339-0.575-0.273-0.903l1.274-6.372   c0.097-0.484,0.333-0.927,0.683-1.277L24.839,0.293c0.216-0.215,0.521-0.323,0.821-0.287c3.344,0.386,5.948,2.991,6.333,6.334   c0.035,0.303-0.07,0.605-0.286,0.821l-16.86,16.86c-0.349,0.35-0.79,0.586-1.276,0.685L7.196,25.98C7.131,25.993,7.065,26,7,26z    M25.893,2.067l-16.5,16.5c-0.07,0.07-0.118,0.159-0.137,0.256l-0.98,4.902l4.901-0.98c0.097-0.02,0.186-0.067,0.255-0.137   L29.933,6.107C29.514,4.068,27.932,2.486,25.893,2.067z"></path></g></svg>