<svg height='100px' width='100px'  fill="#000000" xmlns="http://www.w3.org/2000/svg" xmlns:xlink="http://www.w3.org/1999/xlink" version="1.1" x="0px" y="0px" viewBox="0 0 32 32" style="enable-background:new 0 0 32 32;" xml:space="preserve"><g><path d="M11.558,29H4c-0.552,0-1-0.447-1-1v-7.558c0-0.66,0.268-1.307,0.734-1.772L21.311,1.093c1.455-1.454,3.823-1.455,5.278,0   l0,0l4.318,4.318c1.454,1.455,1.454,3.822,0,5.277L13.33,28.266C12.858,28.739,12.228,29,11.558,29z M5,27h6.558   c0.135,0,0.262-0.053,0.357-0.147L29.493,9.275c0.675-0.675,0.675-1.774,0-2.449l-4.318-4.318c-0.675-0.674-1.772-0.675-2.45,0   L5.148,20.084C5.054,20.178,5,20.309,5,20.442V27z"></path><path d="M1,32c-0.256,0-0.512-0.098-0.707-0.293c-0.391-0.391-0.391-1.023,0-1.414l3-3c0.391-0.391,1.023-0.391,1.414,0   s0.391,1.023,0,1.414l-3,3C1.512,31.902,1.256,32,1,32z"></path><path d="M31,32H1c-0.552,0-1-0.447-1-1s0.448-1,1-1h30c0.553,0,1,0.447,1,1S31.553,32,31,32z"></path><path d="M12.147,28.878c-0.462,0-0.877-0.322-0.977-0.792c-0.773-3.635-3.622-6.482-7.256-7.255   c-0.54-0.115-0.885-0.646-0.77-1.187c0.115-0.539,0.645-0.882,1.186-0.771c4.406,0.938,7.858,4.39,8.796,8.796   c0.115,0.54-0.229,1.071-0.77,1.187C12.286,28.871,12.216,28.878,12.147,28.878z"></path></g></svg>