<svg height='100px' width='100px'  fill="#000000" xmlns="http://www.w3.org/2000/svg" xmlns:xlink="http://www.w3.org/1999/xlink" version="1.1" x="0px" y="0px" viewBox="0 0 32 32" style="enable-background:new 0 0 32 32;" xml:space="preserve"><g><path d="M24.496,32.019H7.504C6.124,32.019,5,30.896,5,29.515L5,7c0-0.552,0.448-1,1-1s1,0.448,1,1l0,22.515   c0,0.278,0.226,0.504,0.504,0.504h16.992c0.278,0,0.504-0.226,0.504-0.504V7c0-0.552,0.447-1,1-1s1,0.448,1,1v22.515   C27,30.896,25.877,32.019,24.496,32.019z"></path><path d="M29,8H3C2.448,8,2,7.552,2,7s0.448-1,1-1h26c0.553,0,1,0.448,1,1S29.553,8,29,8z"></path><path d="M20,7.302c-0.553,0-1-0.448-1-1V5.019c0-1.654-1.346-3-3-3s-3,1.346-3,3v1.283c0,0.552-0.448,1-1,1s-1-0.448-1-1V5.019   c0-2.757,2.243-5,5-5s5,2.243,5,5v1.283C21,6.854,20.553,7.302,20,7.302z"></path><path d="M11,26c-0.552,0-1-0.447-1-1V13c0-0.552,0.448-1,1-1s1,0.448,1,1v12C12,25.553,11.552,26,11,26z"></path><path d="M21,26c-0.553,0-1-0.447-1-1V13c0-0.552,0.447-1,1-1s1,0.448,1,1v12C22,25.553,21.553,26,21,26z"></path><path d="M16,27c-0.552,0-1-0.447-1-1V12c0-0.552,0.448-1,1-1s1,0.448,1,1v14C17,26.553,16.552,27,16,27z"></path></g></svg>